# xmcd
#
# Track frame offsets: 
#        150
#        13924
#        30090
#        51580
#        65965
#        76027
#        95076
#        113708
#        129976
#        154003
#        174103
#        185271
#        202645
#        220728
#        236763
#
# Disc length: 3415 seconds
#
# Revision: 0
# Processed by: cddbd v1.5.2PL0 Copyright (c) Steve Scherf et al.
# Submitted via: ExactAudioCopy v0.99pb5
#
DISCID=bc0d550f
DTITLE=Rock´n Rodeo - The party bang
DYEAR=1900
DGENRE=Country
TTITLE0=I´m here for the party
TTITLE1=Sin wagon
TTITLE2=Copperhead Road
TTITLE3=No no never
TTITLE4=I´m down
TTITLE5=Me and Bobby Mc Gee
TTITLE6=Joy of my life
TTITLE7=The night they drove old dixie down
TTITLE8=Travelin soldier
TTITLE9=Piece of my heart
TTITLE10=White trash wedding
TTITLE11=Perfect
TTITLE12=If you can´t give me love
TTITLE13=You shook me all night long
TTITLE14=What´s up
EXTD=
EXTT0=
EXTT1=
EXTT2=
EXTT3=
EXTT4=
EXTT5=
EXTT6=
EXTT7=
EXTT8=
EXTT9=
EXTT10=
EXTT11=
EXTT12=
EXTT13=
EXTT14=
PLAYORDER=
